<?xml version="1.0" encoding="utf-8"?>
<!-- Generated by IcoMoon.io -->
<!DOCTYPE svg PUBLIC "-//W3C//DTD SVG 1.1//EN" "http://www.w3.org/Graphics/SVG/1.1/DTD/svg11.dtd">
<svg version="1.1" xmlns="http://www.w3.org/2000/svg" xmlns:xlink="http://www.w3.org/1999/xlink" width="1428" height="512" viewBox="0 0 1428 512">
<g id="icomoon-ignore">
</g>
<path fill="#000" d="M276.365 166.067h-120.587c-3.102 0-5.625 2.523-5.625 5.649v58.944c0 3.126 2.523 5.636 5.625 5.636h47.054v73.271c0 0-10.572 3.529-39.748 3.529-34.457 0-82.578-12.622-82.578-118.397 0-105.821 50.099-119.746 97.154-119.746 40.733 0 58.257 7.152 69.435 10.621 3.505 1.102 6.702-2.415 6.702-5.552l13.474-56.955c0-1.456-0.521-3.209-2.131-4.392-4.548-3.197-32.208-18.672-102.056-18.672-80.517 0-163.084 34.243-163.084 198.879 0 164.611 94.525 189.121 174.19 189.121 65.941 0 106.011-28.157 106.011-28.157 1.634-0.901 1.8-3.197 1.8-4.24v-183.887c-0.024-3.102-2.558-5.649-5.636-5.649zM886.191 14.067h-67.847c-3.126 0-5.635 2.522-5.635 5.648v131.196h-105.809v-131.196c0-3.126-2.534-5.648-5.589-5.648h-67.919c-3.056 0-5.542 2.522-5.542 5.648v355.236c0 3.149 2.51 5.66 5.542 5.66h67.919c3.101 0 5.589-2.534 5.589-5.66v-151.918h105.809l-0.237 151.942c0 3.15 2.51 5.636 5.542 5.636h67.942c3.126 0 5.566-2.534 5.566-5.636l0.236-355.26c0.047-3.125-2.487-5.648-5.566-5.648zM357.474 22.119c-24.178 0-43.787 19.786-43.787 44.202 0 24.427 19.608 44.214 43.787 44.214s43.764-19.786 43.764-44.214c0-24.415-19.584-44.202-43.764-44.202zM396.43 136.063c0-3.102-2.51-5.672-5.565-5.672h-67.705c-3.174 0-5.873 3.197-5.873 6.335 0 0 0 197.327 0 234.933 0 6.868 4.286 8.952 9.851 8.952 0 0 28.844 0 60.98 0 6.656 0 8.407-3.268 8.407-9.094-0.047-12.599-0.047-61.904-0.047-71.471-0.048-9.094-0.048-163.983-0.048-163.983zM1148.986 130.924h-67.351c-3.079 0-5.542 2.546-5.542 5.672v174.155c0 0-17.122 12.599-41.467 12.599-24.274 0-30.763-11.012-30.763-34.859 0-23.776 0-151.917 0-151.917 0-3.126-2.534-5.673-5.566-5.673h-68.322c-3.126 0-5.589 2.547-5.589 5.673 0 0 0 92.761 0 163.403s39.383 87.953 93.495 87.953c44.427 0 80.305-24.558 80.305-24.558s1.681 12.883 2.534 14.422c0.711 1.539 2.724 3.079 4.926 3.079h43.29c3.079 0 5.589-2.534 5.589-5.661l0.189-238.639c-0.141-3.103-2.652-5.649-5.73-5.649zM1333.466 122.919c-38.27 0-64.296 17.074-64.296 17.074v-120.278c0-3.126-2.534-5.648-5.565-5.648h-68.132c-3.054 0-5.565 2.522-5.565 5.648l-0.189 355.26c0 3.15 2.534 5.636 5.612 5.636 0 0 47.387 0 47.435 0 2.108 0 3.695-1.089 4.902-2.984 1.185-1.918 2.865-16.387 2.865-16.387s27.778 26.382 80.517 26.382c61.903 0 97.379-31.402 97.379-140.953 0.001-109.41-56.693-123.749-94.963-123.749zM1306.896 323.113c-23.351-0.711-39.17-11.32-39.17-11.32v-112.535c0 0 15.653-9.603 34.836-11.297 24.274-2.155 47.719 5.163 47.719 63.065-0.12 61.003-10.681 73.057-43.385 72.087zM592.563 321.834c-2.985 0-10.61 1.184-18.425 1.184-24.96 0-33.486-11.628-33.486-26.666 0-15.109 0-99.925 0-99.925h50.963c3.126 0 5.589-2.522 5.589-5.672v-54.74c0.047-3.149-2.463-5.672-5.589-5.672h-50.963l-0.072-67.267c0-2.546-1.35-3.813-4.286-3.813h-69.364c-2.676 0-4.168 1.196-4.168 3.789v69.517c0 0-34.788 8.395-37.133 9.094-2.32 0.663-4.026 2.842-4.026 5.411v43.704c0 3.126 2.534 5.672 5.589 5.672h35.57c0 0 0 45.67 0 105.111 0 78.055 54.776 85.728 91.72 85.728 16.861 0 37.038-5.494 40.424-6.678 2.037-0.711 3.197-2.818 3.197-5.068l0.024-48.050c0-3.149-2.628-5.707-5.564-5.659z"></path>
</svg>
